<svg xmlns="http://www.w3.org/2000/svg" viewBox="0 0 800 600" width="800" height="600">
  <defs>
    <!-- 背景漸層 -->
    <radialGradient id="bg-gradient" cx="50%" cy="50%" r="70%">
      <stop offset="0%" stop-color="#1a1f35" />
      <stop offset="50%" stop-color="#0d1117" />
      <stop offset="100%" stop-color="#010409" />
    </radialGradient>

    <!-- 中心光暈 -->
    <radialGradient id="center-glow">
      <stop offset="0%" stop-color="#58a6ff" stop-opacity="0.15" />
      <stop offset="40%" stop-color="#a371f7" stop-opacity="0.08" />
      <stop offset="100%" stop-color="#0d1117" stop-opacity="0" />
    </radialGradient>

    <!-- 星星光暈漸層 -->
    
    <radialGradient id="glow-0">
      <stop offset="0%" stop-color="#58a6ff" stop-opacity="0.8" />
      <stop offset="50%" stop-color="#58a6ff" stop-opacity="0.3" />
      <stop offset="100%" stop-color="#58a6ff" stop-opacity="0" />
    </radialGradient>

    <radialGradient id="glow-1">
      <stop offset="0%" stop-color="#a371f7" stop-opacity="0.8" />
      <stop offset="50%" stop-color="#a371f7" stop-opacity="0.3" />
      <stop offset="100%" stop-color="#a371f7" stop-opacity="0" />
    </radialGradient>

    <radialGradient id="glow-2">
      <stop offset="0%" stop-color="#f778ba" stop-opacity="0.8" />
      <stop offset="50%" stop-color="#f778ba" stop-opacity="0.3" />
      <stop offset="100%" stop-color="#f778ba" stop-opacity="0" />
    </radialGradient>

    <radialGradient id="glow-3">
      <stop offset="0%" stop-color="#7ee787" stop-opacity="0.8" />
      <stop offset="50%" stop-color="#7ee787" stop-opacity="0.3" />
      <stop offset="100%" stop-color="#7ee787" stop-opacity="0" />
    </radialGradient>

    <radialGradient id="glow-4">
      <stop offset="0%" stop-color="#ffa657" stop-opacity="0.8" />
      <stop offset="50%" stop-color="#ffa657" stop-opacity="0.3" />
      <stop offset="100%" stop-color="#ffa657" stop-opacity="0" />
    </radialGradient>
  </defs>

  <!-- 背景 -->
  <rect width="100%" height="100%" fill="url(#bg-gradient)" />

  <!-- 背景星點 -->
  <g class="background-stars">
    <circle cx="583.9" cy="513.5" r="1.1" fill="white" opacity="0.70" />
<circle cx="83.8" cy="211.7" r="0.9" fill="white" opacity="0.52" />
<circle cx="524.2" cy="492.6" r="0.7" fill="white" opacity="0.34" />
<circle cx="327.0" cy="442.1" r="0.9" fill="white" opacity="0.30" />
<circle cx="512.4" cy="339.4" r="1.0" fill="white" opacity="0.24" />
<circle cx="637.3" cy="555.8" r="0.8" fill="white" opacity="0.63" />
<circle cx="340.0" cy="4.1" r="0.8" fill="white" opacity="0.78" />
<circle cx="650.1" cy="83.7" r="1.4" fill="white" opacity="0.31" />
<circle cx="36.1" cy="140.7" r="0.6" fill="white" opacity="0.24" />
<circle cx="682.5" cy="490.1" r="0.8" fill="white" opacity="0.55" />
<circle cx="373.6" cy="54.9" r="0.9" fill="white" opacity="0.66" />
<circle cx="200.6" cy="296.2" r="1.3" fill="white" opacity="0.29" />
<circle cx="687.6" cy="259.2" r="0.6" fill="white" opacity="0.23" />
<circle cx="790.8" cy="336.5" r="1.3" fill="white" opacity="0.33" />
<circle cx="361.4" cy="398.6" r="0.3" fill="white" opacity="0.72" />
<circle cx="796.2" cy="203.5" r="1.2" fill="white" opacity="0.27" />
<circle cx="251.7" cy="301.7" r="0.4" fill="white" opacity="0.58" />
<circle cx="262.1" cy="554.2" r="1.0" fill="white" opacity="0.26" />
<circle cx="290.1" cy="460.1" r="0.9" fill="white" opacity="0.46" />
<circle cx="497.7" cy="203.9" r="1.2" fill="white" opacity="0.32" />
<circle cx="440.2" cy="562.3" r="0.9" fill="white" opacity="0.51" />
<circle cx="378.6" cy="441.5" r="1.3" fill="white" opacity="0.39" />
<circle cx="382.8" cy="569.1" r="1.0" fill="white" opacity="0.25" />
<circle cx="566.9" cy="224.5" r="1.2" fill="white" opacity="0.21" />
<circle cx="373.6" cy="390.7" r="0.5" fill="white" opacity="0.69" />
<circle cx="305.1" cy="441.9" r="1.0" fill="white" opacity="0.53" />
<circle cx="352.8" cy="449.3" r="0.9" fill="white" opacity="0.80" />
<circle cx="294.3" cy="522.7" r="1.0" fill="white" opacity="0.62" />
<circle cx="369.5" cy="217.0" r="1.4" fill="white" opacity="0.52" />
<circle cx="638.2" cy="101.5" r="1.1" fill="white" opacity="0.53" />
<circle cx="96.5" cy="16.4" r="1.4" fill="white" opacity="0.51" />
<circle cx="567.8" cy="354.0" r="1.4" fill="white" opacity="0.38" />
<circle cx="388.0" cy="279.9" r="1.1" fill="white" opacity="0.59" />
<circle cx="241.2" cy="370.6" r="1.3" fill="white" opacity="0.46" />
<circle cx="672.6" cy="187.7" r="0.4" fill="white" opacity="0.50" />
<circle cx="673.6" cy="233.2" r="1.2" fill="white" opacity="0.64" />
<circle cx="647.4" cy="175.0" r="1.3" fill="white" opacity="0.64" />
<circle cx="749.0" cy="445.9" r="0.8" fill="white" opacity="0.41" />
<circle cx="334.6" cy="396.1" r="1.4" fill="white" opacity="0.45" />
<circle cx="625.1" cy="104.6" r="0.4" fill="white" opacity="0.78" />
<circle cx="720.4" cy="282.9" r="0.5" fill="white" opacity="0.53" />
<circle cx="441.8" cy="41.8" r="0.4" fill="white" opacity="0.45" />
<circle cx="372.8" cy="77.6" r="1.2" fill="white" opacity="0.41" />
<circle cx="673.5" cy="110.2" r="1.4" fill="white" opacity="0.21" />
<circle cx="645.0" cy="277.4" r="0.9" fill="white" opacity="0.37" />
<circle cx="136.0" cy="197.3" r="1.3" fill="white" opacity="0.37" />
<circle cx="627.2" cy="63.1" r="1.3" fill="white" opacity="0.60" />
<circle cx="363.1" cy="25.5" r="1.3" fill="white" opacity="0.75" />
<circle cx="661.6" cy="254.6" r="0.3" fill="white" opacity="0.56" />
<circle cx="315.7" cy="574.2" r="1.2" fill="white" opacity="0.41" />
<circle cx="624.4" cy="536.4" r="1.4" fill="white" opacity="0.38" />
<circle cx="127.2" cy="497.8" r="0.3" fill="white" opacity="0.80" />
<circle cx="769.5" cy="496.9" r="0.8" fill="white" opacity="0.74" />
<circle cx="400.6" cy="467.8" r="0.6" fill="white" opacity="0.26" />
<circle cx="400.0" cy="314.1" r="1.2" fill="white" opacity="0.21" />
<circle cx="85.6" cy="120.0" r="1.3" fill="white" opacity="0.31" />
<circle cx="474.6" cy="514.3" r="0.4" fill="white" opacity="0.53" />
<circle cx="371.8" cy="55.7" r="0.7" fill="white" opacity="0.72" />
<circle cx="677.8" cy="588.7" r="0.4" fill="white" opacity="0.78" />
<circle cx="296.5" cy="289.5" r="0.9" fill="white" opacity="0.49" />
<circle cx="278.8" cy="303.2" r="0.5" fill="white" opacity="0.49" />
<circle cx="760.3" cy="473.3" r="0.3" fill="white" opacity="0.57" />
<circle cx="587.4" cy="547.9" r="0.9" fill="white" opacity="0.27" />
<circle cx="404.2" cy="296.3" r="1.4" fill="white" opacity="0.64" />
<circle cx="511.4" cy="478.0" r="1.4" fill="white" opacity="0.44" />
<circle cx="533.0" cy="328.8" r="0.7" fill="white" opacity="0.42" />
<circle cx="324.9" cy="277.4" r="1.2" fill="white" opacity="0.66" />
<circle cx="171.5" cy="75.9" r="0.7" fill="white" opacity="0.76" />
<circle cx="351.8" cy="393.3" r="1.4" fill="white" opacity="0.78" />
<circle cx="765.9" cy="157.9" r="1.3" fill="white" opacity="0.44" />
<circle cx="540.9" cy="16.1" r="1.0" fill="white" opacity="0.20" />
<circle cx="604.6" cy="87.9" r="1.0" fill="white" opacity="0.76" />
<circle cx="117.3" cy="589.2" r="0.4" fill="white" opacity="0.48" />
<circle cx="739.9" cy="131.6" r="1.5" fill="white" opacity="0.54" />
<circle cx="375.8" cy="114.0" r="0.6" fill="white" opacity="0.77" />
<circle cx="554.5" cy="73.2" r="0.4" fill="white" opacity="0.57" />
<circle cx="91.8" cy="235.5" r="1.1" fill="white" opacity="0.51" />
<circle cx="362.7" cy="245.9" r="0.6" fill="white" opacity="0.46" />
<circle cx="754.6" cy="420.9" r="0.9" fill="white" opacity="0.30" />
<circle cx="765.6" cy="411.9" r="1.1" fill="white" opacity="0.26" />
<circle cx="439.9" cy="573.8" r="1.5" fill="white" opacity="0.26" />
<circle cx="467.8" cy="115.8" r="1.0" fill="white" opacity="0.61" />
<circle cx="702.7" cy="309.4" r="0.5" fill="white" opacity="0.40" />
<circle cx="92.8" cy="175.6" r="1.4" fill="white" opacity="0.42" />
<circle cx="1.7" cy="118.2" r="0.8" fill="white" opacity="0.58" />
<circle cx="275.4" cy="396.1" r="0.6" fill="white" opacity="0.69" />
<circle cx="11.1" cy="548.6" r="1.3" fill="white" opacity="0.70" />
<circle cx="390.1" cy="268.4" r="0.6" fill="white" opacity="0.29" />
<circle cx="246.0" cy="522.6" r="0.3" fill="white" opacity="0.50" />
<circle cx="89.6" cy="269.9" r="0.5" fill="white" opacity="0.64" />
<circle cx="20.2" cy="6.9" r="1.4" fill="white" opacity="0.66" />
<circle cx="481.0" cy="112.8" r="1.0" fill="white" opacity="0.49" />
<circle cx="176.7" cy="457.8" r="1.4" fill="white" opacity="0.56" />
<circle cx="594.1" cy="210.3" r="1.0" fill="white" opacity="0.61" />
<circle cx="539.4" cy="48.1" r="0.6" fill="white" opacity="0.48" />
<circle cx="280.9" cy="102.6" r="1.4" fill="white" opacity="0.22" />
<circle cx="434.3" cy="597.5" r="1.3" fill="white" opacity="0.45" />
<circle cx="393.0" cy="238.7" r="0.4" fill="white" opacity="0.39" />
<circle cx="483.2" cy="136.8" r="1.1" fill="white" opacity="0.33" />
<circle cx="696.7" cy="301.2" r="1.4" fill="white" opacity="0.35" />
<circle cx="782.4" cy="233.0" r="1.3" fill="white" opacity="0.53" />
<circle cx="520.3" cy="444.7" r="1.4" fill="white" opacity="0.63" />
<circle cx="372.8" cy="598.5" r="0.5" fill="white" opacity="0.31" />
<circle cx="643.0" cy="230.1" r="1.1" fill="white" opacity="0.23" />
<circle cx="61.0" cy="165.1" r="1.3" fill="white" opacity="0.74" />
<circle cx="701.7" cy="494.0" r="0.8" fill="white" opacity="0.75" />
<circle cx="235.7" cy="436.5" r="1.4" fill="white" opacity="0.39" />
<circle cx="562.4" cy="119.5" r="0.4" fill="white" opacity="0.69" />
<circle cx="338.1" cy="380.6" r="0.8" fill="white" opacity="0.26" />
<circle cx="602.0" cy="301.9" r="0.9" fill="white" opacity="0.27" />
<circle cx="286.7" cy="236.4" r="1.2" fill="white" opacity="0.30" />
<circle cx="314.3" cy="240.1" r="1.3" fill="white" opacity="0.63" />
<circle cx="408.4" cy="40.2" r="1.0" fill="white" opacity="0.28" />
<circle cx="797.2" cy="246.1" r="0.6" fill="white" opacity="0.25" />
<circle cx="37.5" cy="491.8" r="0.5" fill="white" opacity="0.30" />
<circle cx="779.2" cy="337.7" r="0.7" fill="white" opacity="0.53" />
<circle cx="285.0" cy="497.0" r="1.1" fill="white" opacity="0.64" />
<circle cx="397.7" cy="589.2" r="0.8" fill="white" opacity="0.43" />
<circle cx="513.0" cy="312.5" r="0.5" fill="white" opacity="0.46" />
<circle cx="135.1" cy="426.8" r="1.2" fill="white" opacity="0.43" />
<circle cx="660.5" cy="97.1" r="1.0" fill="white" opacity="0.69" />
<circle cx="676.3" cy="415.1" r="0.8" fill="white" opacity="0.59" />
<circle cx="97.8" cy="542.4" r="0.5" fill="white" opacity="0.54" />
<circle cx="479.6" cy="548.8" r="1.5" fill="white" opacity="0.77" />
<circle cx="86.8" cy="442.3" r="0.8" fill="white" opacity="0.31" />
<circle cx="228.6" cy="389.7" r="0.4" fill="white" opacity="0.21" />
<circle cx="328.7" cy="6.4" r="0.6" fill="white" opacity="0.54" />
<circle cx="462.8" cy="309.4" r="1.0" fill="white" opacity="0.32" />
<circle cx="318.5" cy="460.2" r="1.2" fill="white" opacity="0.60" />
<circle cx="69.9" cy="511.7" r="1.5" fill="white" opacity="0.57" />
<circle cx="699.3" cy="290.6" r="0.9" fill="white" opacity="0.76" />
<circle cx="314.7" cy="515.8" r="1.4" fill="white" opacity="0.50" />
<circle cx="248.6" cy="326.0" r="1.1" fill="white" opacity="0.61" />
<circle cx="153.0" cy="198.7" r="1.0" fill="white" opacity="0.53" />
<circle cx="640.5" cy="500.1" r="1.2" fill="white" opacity="0.40" />
<circle cx="546.4" cy="352.3" r="0.7" fill="white" opacity="0.21" />
<circle cx="686.0" cy="122.1" r="0.5" fill="white" opacity="0.25" />
<circle cx="798.8" cy="137.8" r="0.7" fill="white" opacity="0.37" />
<circle cx="280.5" cy="139.9" r="1.3" fill="white" opacity="0.39" />
<circle cx="609.3" cy="405.8" r="0.7" fill="white" opacity="0.57" />
<circle cx="757.2" cy="178.0" r="0.7" fill="white" opacity="0.24" />
<circle cx="798.7" cy="35.2" r="0.6" fill="white" opacity="0.36" />
<circle cx="230.6" cy="148.6" r="0.3" fill="white" opacity="0.48" />
<circle cx="312.9" cy="368.8" r="1.3" fill="white" opacity="0.29" />
<circle cx="401.6" cy="368.3" r="0.3" fill="white" opacity="0.33" />
<circle cx="237.0" cy="413.7" r="1.3" fill="white" opacity="0.57" />
<circle cx="42.5" cy="322.8" r="0.8" fill="white" opacity="0.54" />
<circle cx="244.3" cy="151.0" r="0.8" fill="white" opacity="0.54" />
<circle cx="498.0" cy="493.0" r="0.5" fill="white" opacity="0.36" />
<circle cx="151.8" cy="397.4" r="0.3" fill="white" opacity="0.69" />
  </g>

  <!-- 中心光暈 -->
  <ellipse cx="400" cy="300" rx="280" ry="200" fill="url(#center-glow)" />

  <!-- Stargazers -->
  <g class="stargazers">
    
    <g class="star" data-user="tznthou">
      <!-- 光暈 -->
      <circle
        cx="388.69330018096105"
        cy="311.56068991452156"
        r="20"
        fill="url(#glow-2)"
        opacity="0.6"
      />
      <!-- 頭像 -->
      <clipPath id="clip-tznthou">
        <circle cx="388.69330018096105" cy="311.56068991452156" r="14" />
      </clipPath>
      <image
        href="https://avatars.githubusercontent.com/u/2958534?v=4?s=56"
        x="374.69330018096105"
        y="297.56068991452156"
        width="28"
        height="28"
        clip-path="url(#clip-tznthou)"
        preserveAspectRatio="xMidYMid slice"
      />
      <!-- 邊框 -->
      <circle
        cx="388.69330018096105"
        cy="311.56068991452156"
        r="14"
        fill="none"
        stroke="#f778ba"
        stroke-width="1.5"
        opacity="0.8"
      />
    </g>
  </g>

  <!-- 標題 -->
  <text x="400" y="30" text-anchor="middle" fill="#8b949e" font-family="system-ui, sans-serif" font-size="12">
    ✨ 1 Stargazers Galaxy ✨
  </text>

  <!-- 說明文字 -->
  <text x="400" y="588" text-anchor="middle" fill="#484f58" font-family="system-ui, sans-serif" font-size="10">
    Star this repo to join the galaxy!
  </text>
</svg>