<svg xmlns="http://www.w3.org/2000/svg" viewBox="0 0 800 600" width="800" height="600">
  <defs>
    <!-- 背景漸層 -->
    <radialGradient id="bg-gradient" cx="50%" cy="50%" r="70%">
      <stop offset="0%" stop-color="#1a1f35" />
      <stop offset="50%" stop-color="#0d1117" />
      <stop offset="100%" stop-color="#010409" />
    </radialGradient>

    <!-- 中心光暈 -->
    <radialGradient id="center-glow">
      <stop offset="0%" stop-color="#58a6ff" stop-opacity="0.15" />
      <stop offset="40%" stop-color="#a371f7" stop-opacity="0.08" />
      <stop offset="100%" stop-color="#0d1117" stop-opacity="0" />
    </radialGradient>

    <!-- 星星光暈漸層 -->
    
    <radialGradient id="glow-0">
      <stop offset="0%" stop-color="#58a6ff" stop-opacity="0.8" />
      <stop offset="50%" stop-color="#58a6ff" stop-opacity="0.3" />
      <stop offset="100%" stop-color="#58a6ff" stop-opacity="0" />
    </radialGradient>

    <radialGradient id="glow-1">
      <stop offset="0%" stop-color="#a371f7" stop-opacity="0.8" />
      <stop offset="50%" stop-color="#a371f7" stop-opacity="0.3" />
      <stop offset="100%" stop-color="#a371f7" stop-opacity="0" />
    </radialGradient>

    <radialGradient id="glow-2">
      <stop offset="0%" stop-color="#f778ba" stop-opacity="0.8" />
      <stop offset="50%" stop-color="#f778ba" stop-opacity="0.3" />
      <stop offset="100%" stop-color="#f778ba" stop-opacity="0" />
    </radialGradient>

    <radialGradient id="glow-3">
      <stop offset="0%" stop-color="#7ee787" stop-opacity="0.8" />
      <stop offset="50%" stop-color="#7ee787" stop-opacity="0.3" />
      <stop offset="100%" stop-color="#7ee787" stop-opacity="0" />
    </radialGradient>

    <radialGradient id="glow-4">
      <stop offset="0%" stop-color="#ffa657" stop-opacity="0.8" />
      <stop offset="50%" stop-color="#ffa657" stop-opacity="0.3" />
      <stop offset="100%" stop-color="#ffa657" stop-opacity="0" />
    </radialGradient>
  </defs>

  <!-- 背景 -->
  <rect width="100%" height="100%" fill="url(#bg-gradient)" />

  <!-- 背景星點 -->
  <g class="background-stars">
    <circle cx="292.7" cy="505.1" r="0.4" fill="white" opacity="0.47" />
<circle cx="94.6" cy="82.7" r="0.9" fill="white" opacity="0.73" />
<circle cx="668.2" cy="376.9" r="0.7" fill="white" opacity="0.21" />
<circle cx="377.0" cy="482.2" r="0.5" fill="white" opacity="0.28" />
<circle cx="114.8" cy="45.7" r="1.2" fill="white" opacity="0.65" />
<circle cx="722.8" cy="273.2" r="0.8" fill="white" opacity="0.41" />
<circle cx="548.5" cy="147.9" r="0.4" fill="white" opacity="0.80" />
<circle cx="549.9" cy="246.5" r="0.3" fill="white" opacity="0.55" />
<circle cx="530.6" cy="417.7" r="1.4" fill="white" opacity="0.44" />
<circle cx="613.5" cy="561.0" r="0.5" fill="white" opacity="0.57" />
<circle cx="131.5" cy="564.0" r="0.4" fill="white" opacity="0.62" />
<circle cx="87.8" cy="380.5" r="0.7" fill="white" opacity="0.24" />
<circle cx="128.3" cy="343.5" r="1.3" fill="white" opacity="0.25" />
<circle cx="159.8" cy="148.0" r="0.8" fill="white" opacity="0.61" />
<circle cx="657.1" cy="210.9" r="0.4" fill="white" opacity="0.24" />
<circle cx="351.5" cy="141.8" r="0.4" fill="white" opacity="0.27" />
<circle cx="531.4" cy="117.9" r="0.3" fill="white" opacity="0.34" />
<circle cx="132.6" cy="276.6" r="0.7" fill="white" opacity="0.69" />
<circle cx="676.2" cy="14.3" r="1.2" fill="white" opacity="0.51" />
<circle cx="698.3" cy="417.0" r="1.0" fill="white" opacity="0.33" />
<circle cx="423.1" cy="422.2" r="0.7" fill="white" opacity="0.58" />
<circle cx="542.2" cy="484.2" r="0.9" fill="white" opacity="0.58" />
<circle cx="365.3" cy="319.2" r="1.0" fill="white" opacity="0.68" />
<circle cx="610.0" cy="156.5" r="0.6" fill="white" opacity="0.21" />
<circle cx="411.7" cy="328.1" r="1.0" fill="white" opacity="0.75" />
<circle cx="508.3" cy="133.1" r="1.1" fill="white" opacity="0.60" />
<circle cx="753.4" cy="413.4" r="0.6" fill="white" opacity="0.74" />
<circle cx="112.3" cy="157.0" r="0.3" fill="white" opacity="0.65" />
<circle cx="203.0" cy="467.2" r="0.9" fill="white" opacity="0.74" />
<circle cx="549.0" cy="543.8" r="1.0" fill="white" opacity="0.23" />
<circle cx="496.0" cy="98.2" r="1.2" fill="white" opacity="0.54" />
<circle cx="35.3" cy="84.8" r="0.3" fill="white" opacity="0.71" />
<circle cx="198.4" cy="133.4" r="0.4" fill="white" opacity="0.39" />
<circle cx="360.4" cy="398.6" r="0.6" fill="white" opacity="0.58" />
<circle cx="155.8" cy="107.7" r="0.6" fill="white" opacity="0.78" />
<circle cx="779.3" cy="13.4" r="0.4" fill="white" opacity="0.48" />
<circle cx="44.2" cy="425.4" r="0.7" fill="white" opacity="0.41" />
<circle cx="56.4" cy="258.6" r="0.7" fill="white" opacity="0.68" />
<circle cx="493.1" cy="267.0" r="1.2" fill="white" opacity="0.55" />
<circle cx="245.3" cy="178.3" r="0.3" fill="white" opacity="0.25" />
<circle cx="725.5" cy="371.3" r="0.7" fill="white" opacity="0.21" />
<circle cx="281.7" cy="119.0" r="0.7" fill="white" opacity="0.75" />
<circle cx="427.7" cy="423.6" r="0.8" fill="white" opacity="0.67" />
<circle cx="210.0" cy="469.6" r="0.8" fill="white" opacity="0.32" />
<circle cx="242.5" cy="527.4" r="1.2" fill="white" opacity="0.79" />
<circle cx="533.1" cy="572.4" r="1.0" fill="white" opacity="0.62" />
<circle cx="142.8" cy="343.3" r="1.0" fill="white" opacity="0.74" />
<circle cx="112.8" cy="85.5" r="1.4" fill="white" opacity="0.41" />
<circle cx="752.1" cy="340.8" r="1.0" fill="white" opacity="0.51" />
<circle cx="368.8" cy="437.8" r="0.5" fill="white" opacity="0.50" />
<circle cx="17.7" cy="94.8" r="0.8" fill="white" opacity="0.31" />
<circle cx="657.3" cy="515.1" r="0.9" fill="white" opacity="0.47" />
<circle cx="339.6" cy="399.1" r="1.0" fill="white" opacity="0.71" />
<circle cx="25.2" cy="249.1" r="0.4" fill="white" opacity="0.55" />
<circle cx="99.0" cy="233.8" r="1.5" fill="white" opacity="0.34" />
<circle cx="59.6" cy="219.7" r="0.8" fill="white" opacity="0.62" />
<circle cx="57.6" cy="439.4" r="0.3" fill="white" opacity="0.37" />
<circle cx="755.7" cy="478.6" r="0.3" fill="white" opacity="0.58" />
<circle cx="96.8" cy="408.7" r="1.3" fill="white" opacity="0.60" />
<circle cx="318.3" cy="187.8" r="0.9" fill="white" opacity="0.26" />
<circle cx="42.2" cy="297.9" r="1.3" fill="white" opacity="0.49" />
<circle cx="169.0" cy="536.4" r="1.5" fill="white" opacity="0.32" />
<circle cx="702.3" cy="375.1" r="0.9" fill="white" opacity="0.30" />
<circle cx="636.0" cy="355.1" r="0.6" fill="white" opacity="0.35" />
<circle cx="86.1" cy="111.2" r="1.1" fill="white" opacity="0.71" />
<circle cx="743.4" cy="236.4" r="0.6" fill="white" opacity="0.50" />
<circle cx="577.3" cy="308.7" r="0.4" fill="white" opacity="0.42" />
<circle cx="353.7" cy="157.6" r="1.2" fill="white" opacity="0.21" />
<circle cx="211.2" cy="294.5" r="1.2" fill="white" opacity="0.55" />
<circle cx="664.4" cy="527.1" r="1.0" fill="white" opacity="0.66" />
<circle cx="173.0" cy="165.4" r="1.2" fill="white" opacity="0.35" />
<circle cx="655.3" cy="154.4" r="0.3" fill="white" opacity="0.22" />
<circle cx="264.6" cy="567.7" r="1.4" fill="white" opacity="0.21" />
<circle cx="486.6" cy="449.2" r="0.3" fill="white" opacity="0.57" />
<circle cx="210.1" cy="570.6" r="0.4" fill="white" opacity="0.46" />
<circle cx="475.7" cy="127.5" r="1.0" fill="white" opacity="0.79" />
<circle cx="334.2" cy="488.7" r="0.8" fill="white" opacity="0.53" />
<circle cx="470.0" cy="291.2" r="1.5" fill="white" opacity="0.67" />
<circle cx="678.4" cy="286.7" r="0.7" fill="white" opacity="0.26" />
<circle cx="679.3" cy="503.8" r="1.0" fill="white" opacity="0.47" />
<circle cx="141.6" cy="101.8" r="1.3" fill="white" opacity="0.59" />
<circle cx="157.2" cy="352.8" r="1.5" fill="white" opacity="0.54" />
<circle cx="577.9" cy="468.0" r="0.7" fill="white" opacity="0.54" />
<circle cx="68.2" cy="598.3" r="1.3" fill="white" opacity="0.74" />
<circle cx="476.0" cy="293.9" r="1.4" fill="white" opacity="0.22" />
<circle cx="480.6" cy="587.3" r="0.5" fill="white" opacity="0.20" />
<circle cx="329.4" cy="8.0" r="1.3" fill="white" opacity="0.76" />
<circle cx="754.4" cy="558.1" r="1.3" fill="white" opacity="0.79" />
<circle cx="133.8" cy="117.5" r="1.0" fill="white" opacity="0.63" />
<circle cx="184.1" cy="58.4" r="0.4" fill="white" opacity="0.59" />
<circle cx="420.8" cy="117.4" r="1.4" fill="white" opacity="0.58" />
<circle cx="571.7" cy="543.6" r="0.5" fill="white" opacity="0.51" />
<circle cx="649.0" cy="111.7" r="0.7" fill="white" opacity="0.69" />
<circle cx="348.1" cy="262.9" r="1.4" fill="white" opacity="0.64" />
<circle cx="613.4" cy="253.2" r="0.8" fill="white" opacity="0.68" />
<circle cx="207.0" cy="34.7" r="1.4" fill="white" opacity="0.73" />
<circle cx="747.8" cy="1.3" r="1.3" fill="white" opacity="0.43" />
<circle cx="723.3" cy="305.7" r="1.0" fill="white" opacity="0.60" />
<circle cx="596.8" cy="298.5" r="0.5" fill="white" opacity="0.25" />
<circle cx="48.6" cy="481.9" r="0.8" fill="white" opacity="0.20" />
<circle cx="119.3" cy="148.1" r="1.4" fill="white" opacity="0.55" />
<circle cx="359.8" cy="100.6" r="0.4" fill="white" opacity="0.37" />
<circle cx="715.7" cy="496.8" r="1.1" fill="white" opacity="0.40" />
<circle cx="573.4" cy="15.1" r="0.8" fill="white" opacity="0.57" />
<circle cx="550.6" cy="259.5" r="1.0" fill="white" opacity="0.36" />
<circle cx="354.6" cy="158.3" r="0.7" fill="white" opacity="0.73" />
<circle cx="488.5" cy="599.2" r="1.5" fill="white" opacity="0.40" />
<circle cx="233.9" cy="303.5" r="0.7" fill="white" opacity="0.38" />
<circle cx="296.1" cy="91.6" r="0.6" fill="white" opacity="0.47" />
<circle cx="18.7" cy="341.2" r="0.7" fill="white" opacity="0.21" />
<circle cx="712.3" cy="126.4" r="1.4" fill="white" opacity="0.76" />
<circle cx="788.5" cy="446.8" r="1.4" fill="white" opacity="0.74" />
<circle cx="39.3" cy="24.0" r="0.9" fill="white" opacity="0.26" />
<circle cx="429.9" cy="89.7" r="1.4" fill="white" opacity="0.64" />
<circle cx="150.9" cy="120.9" r="0.9" fill="white" opacity="0.66" />
<circle cx="306.8" cy="203.2" r="0.7" fill="white" opacity="0.55" />
<circle cx="330.2" cy="311.6" r="0.6" fill="white" opacity="0.44" />
<circle cx="369.2" cy="499.0" r="1.2" fill="white" opacity="0.41" />
<circle cx="233.0" cy="2.1" r="1.0" fill="white" opacity="0.52" />
<circle cx="82.8" cy="510.2" r="0.9" fill="white" opacity="0.43" />
<circle cx="392.4" cy="248.4" r="1.5" fill="white" opacity="0.24" />
<circle cx="363.7" cy="580.8" r="1.1" fill="white" opacity="0.27" />
<circle cx="475.4" cy="53.4" r="1.2" fill="white" opacity="0.43" />
<circle cx="729.0" cy="154.7" r="0.5" fill="white" opacity="0.58" />
<circle cx="515.4" cy="453.2" r="0.5" fill="white" opacity="0.76" />
<circle cx="118.9" cy="302.4" r="0.6" fill="white" opacity="0.63" />
<circle cx="445.2" cy="184.3" r="1.4" fill="white" opacity="0.60" />
<circle cx="402.1" cy="569.8" r="0.4" fill="white" opacity="0.41" />
<circle cx="80.0" cy="582.3" r="0.9" fill="white" opacity="0.35" />
<circle cx="422.2" cy="86.0" r="0.5" fill="white" opacity="0.68" />
<circle cx="423.3" cy="461.9" r="0.5" fill="white" opacity="0.42" />
<circle cx="281.7" cy="50.1" r="0.6" fill="white" opacity="0.65" />
<circle cx="412.0" cy="144.2" r="0.7" fill="white" opacity="0.57" />
<circle cx="799.4" cy="253.6" r="1.2" fill="white" opacity="0.76" />
<circle cx="552.9" cy="95.8" r="1.4" fill="white" opacity="0.31" />
<circle cx="401.7" cy="439.0" r="1.5" fill="white" opacity="0.64" />
<circle cx="572.2" cy="68.3" r="0.8" fill="white" opacity="0.40" />
<circle cx="711.7" cy="448.6" r="0.8" fill="white" opacity="0.75" />
<circle cx="137.3" cy="213.6" r="1.4" fill="white" opacity="0.53" />
<circle cx="621.2" cy="271.2" r="1.4" fill="white" opacity="0.49" />
<circle cx="188.4" cy="432.3" r="1.4" fill="white" opacity="0.39" />
<circle cx="6.8" cy="346.3" r="1.5" fill="white" opacity="0.78" />
<circle cx="118.1" cy="478.9" r="0.9" fill="white" opacity="0.59" />
<circle cx="609.4" cy="311.4" r="0.9" fill="white" opacity="0.26" />
<circle cx="151.3" cy="447.6" r="1.1" fill="white" opacity="0.53" />
<circle cx="538.2" cy="346.7" r="0.4" fill="white" opacity="0.38" />
<circle cx="658.7" cy="179.4" r="1.1" fill="white" opacity="0.27" />
<circle cx="306.7" cy="64.0" r="0.3" fill="white" opacity="0.71" />
<circle cx="480.8" cy="301.1" r="0.6" fill="white" opacity="0.46" />
<circle cx="147.4" cy="113.4" r="1.1" fill="white" opacity="0.55" />
  </g>

  <!-- 中心光暈 -->
  <ellipse cx="400" cy="300" rx="280" ry="200" fill="url(#center-glow)" />

  <!-- Stargazers -->
  <g class="stargazers">
    
    <g class="star" data-user="octocat">
      <!-- 光暈 -->
      <circle
        cx="383.83175049654835"
        cy="312.68244414044807"
        r="20"
        fill="url(#glow-2)"
        opacity="0.6"
      />
      <!-- 頭像 -->
      <clipPath id="clip-octocat">
        <circle cx="383.83175049654835" cy="312.68244414044807" r="14" />
      </clipPath>
      <image
        href="https://github.com/octocat.png?s=56"
        x="369.83175049654835"
        y="298.68244414044807"
        width="28"
        height="28"
        clip-path="url(#clip-octocat)"
        preserveAspectRatio="xMidYMid slice"
      />
      <!-- 邊框 -->
      <circle
        cx="383.83175049654835"
        cy="312.68244414044807"
        r="14"
        fill="none"
        stroke="#f778ba"
        stroke-width="1.5"
        opacity="0.8"
      />
    </g>
  </g>

  <!-- 標題 -->
  <text x="400" y="30" text-anchor="middle" fill="#8b949e" font-family="system-ui, sans-serif" font-size="12">
    ✨ 1 Stargazers Galaxy ✨
  </text>

  <!-- 說明文字 -->
  <text x="400" y="588" text-anchor="middle" fill="#484f58" font-family="system-ui, sans-serif" font-size="10">
    Star this repo to join the galaxy!
  </text>
</svg>